<svg xmlns="http://www.w3.org/2000/svg" width="1280" height="640" viewBox="0 0 1280 640" role="img" aria-labelledby="title desc">
  <title id="title">Team Orchestrator social preview</title>
  <desc id="desc">A minimal coordination identity for a Claude Code skill. Two gates lead to one coordinator connected to five bounded roles.</desc>

  <rect width="1280" height="640" fill="#FAFAF7"/>

  <g fill="none" stroke="#111111" stroke-width="7" stroke-linecap="round" stroke-linejoin="round">
    <path d="M84 320H250"/>
    <path d="M350 320H374"/>
    <path d="M374 320L520 208"/>
    <path d="M374 320L538 264"/>
    <path d="M374 320H548"/>
    <path d="M374 320L538 376"/>
    <path d="M374 320L520 432"/>

    <path d="M150 257V383" stroke-width="13"/>
    <path d="M210 257V383" stroke-width="13"/>

    <circle cx="300" cy="320" r="50" fill="#FF4D00" stroke="#111111" stroke-width="8"/>
    <circle cx="530" cy="200" r="17" fill="#FAFAF7"/>
    <circle cx="550" cy="260" r="17" fill="#FAFAF7"/>
    <circle cx="562" cy="320" r="17" fill="#FAFAF7"/>
    <circle cx="550" cy="380" r="17" fill="#FAFAF7"/>
    <circle cx="530" cy="440" r="17" fill="#FAFAF7"/>
  </g>

  <circle cx="300" cy="320" r="10" fill="#111111"/>

  <g fill="#111111" font-family="Inter, ui-sans-serif, system-ui, -apple-system, BlinkMacSystemFont, Segoe UI, sans-serif">
    <text x="650" y="220" font-family="ui-monospace, SFMono-Regular, Menlo, monospace" font-size="17" font-weight="700" letter-spacing="3.4">CLAUDE CODE SKILL</text>
    <text x="646" y="309" font-size="64" font-weight="800" letter-spacing="-2.2">Team</text>
    <text x="646" y="379" font-size="64" font-weight="800" letter-spacing="-2.2">Orchestrator</text>
    <text x="650" y="431" font-size="20" font-weight="500" fill="#545454">Human approval before bounded parallel work.</text>
  </g>

  <rect x="650" y="472" width="104" height="5" rx="2.5" fill="#FF4D00"/>
</svg>
